<svg width="441" height="436" fill="none" xmlns="http://www.w3.org/2000/svg"><path opacity=".8" d="M219.723 435.725c121.198 0 219.448-39.426 219.448-88.061 0-48.634-98.25-88.06-219.448-88.06C98.525 259.604.275 299.03.275 347.664c0 48.635 98.25 88.061 219.448 88.061z" stroke="#CADBFD" stroke-miterlimit="10"/><path opacity=".5" d="M64.762 68.211v262.187s11.344 60.779 151.319 59.612c142.885-1.184 163.876-59.612 163.876-59.612V68.211H64.762z" fill="url(#paint0_linear_70_1001)"/><path opacity=".1" d="M396.358 345.011c0-38.541-77.902-69.825-174.001-69.825-96.1 0-173.996 31.262-173.996 69.825v12.867c0 38.541 77.902 69.825 173.996 69.825 96.093 0 174.001-31.284 174.001-69.825v-12.867z" fill="#11F"/><path d="M392.854 334.808c-15.035-32.423-85.89-56.968-171.043-56.968-85.152 0-156.007 24.545-171.042 56.968H47.81v12.857c0 38.54 77.902 69.819 174.001 69.819 96.1 0 173.996-31.262 173.996-69.819v-12.857h-2.953z" fill="url(#paint1_linear_70_1001)"/><path d="M221.811 404.633c96.095 0 173.996-31.262 173.996-69.825s-77.901-69.825-173.996-69.825c-96.095 0-173.996 31.262-173.996 69.825s77.901 69.825 173.996 69.825z" fill="url(#paint2_linear_70_1001)"/><path d="M221.811 393.39c-44.51 0-86.111-7.653-117.145-21.555-25.304-11.331-41.022-26.153-41.022-38.684 0-12.531 15.718-27.347 41.022-38.684 31.034-13.902 72.635-21.555 117.145-21.555 44.51 0 86.111 7.653 117.145 21.555 25.299 11.337 41.017 26.159 41.017 38.684 0 12.526-15.718 27.353-41.017 38.684-31.04 13.902-72.641 21.555-117.145 21.555zm0-119.911c-44.433 0-85.946 7.637-116.914 21.506-25.095 11.243-40.686 25.877-40.686 38.166 0 12.289 15.591 26.929 40.686 38.167 30.963 13.869 72.503 21.505 116.914 21.505s85.946-7.636 116.914-21.505c25.095-11.238 40.68-25.878 40.68-38.167 0-12.289-15.585-26.923-40.68-38.166-30.968-13.869-72.487-21.506-116.914-21.506z" fill="#4870F4" opacity=".3"/><path d="M343.675 195.225c8.427-18.203.494-39.787-17.721-48.209-18.214-8.423-39.812-.494-48.24 17.709-8.428 18.203-.494 39.787 17.72 48.209 18.215 8.423 39.813.494 48.241-17.709z" fill="#AAB7D5"/><path d="M341.276 196.104c8.428-18.203.494-39.787-17.72-48.21-18.215-8.422-39.813-.494-48.24 17.709-8.428 18.203-.495 39.787 17.72 48.21 18.214 8.422 39.812.494 48.24-17.709z" fill="url(#paint3_linear_70_1001)"/><path d="M339.398 181.896c.57-17.162-12.89-31.536-30.063-32.105-17.172-.569-31.556 12.882-32.125 30.043-.57 17.162 12.89 31.536 30.062 32.106 17.173.569 31.556-12.882 32.126-30.044z" fill="url(#paint4_linear_70_1001)"/><path opacity=".1" d="M280.607 192.395a31.054 31.054 0 01-1.008-18.175 31.076 31.076 0 019.351-15.622 31.107 31.107 0 0134.492-4.854 31.112 31.112 0 00-42.793 12.7 31.062 31.062 0 004.172 34.868 31.072 31.072 0 009.835 7.49 30.957 30.957 0 01-14.049-16.407z" fill="#000"/><path d="M320.693 178.465a6.48 6.48 0 00-4.033-1.244 6.949 6.949 0 001.51-2.318 6.492 6.492 0 00-.21-4.471 7.355 7.355 0 00-2.754-3.694c-1.951-1.292-4.459-1.461-7.526-.506l-1.411-3.855-3.019 1.102 1.405 3.821-3.383 1.238-1.404-3.815-3.014 1.101 1.399 3.816-4.336 1.591 9.978 27.254 4.336-1.592 1.052 2.852 3.014-1.101-1.02-2.857 3.383-1.245 1.047 2.852 3.019-1.101-1.069-2.907a18.82 18.82 0 002.254-1.184 7.954 7.954 0 003.718-5.346 8.466 8.466 0 00-.385-4.784 7.711 7.711 0 00-2.551-3.607zm-7.945-5.428c.419 1.145.347 2.081-.225 2.797a5.862 5.862 0 01-2.634 1.734l-6.611 2.428-2.204-6.001 5.923-2.175a11.008 11.008 0 013.377-.76c1.116.048 1.908.707 2.374 1.977zm4.039 14.805a6.862 6.862 0 01-2.584 1.492l-6.611 2.428-2.667-7.257 6.705-2.461a7.37 7.37 0 012.892-.55c1.352.106 2.287.866 2.805 2.279.617 1.69.435 3.039-.54 4.069z" fill="#4870F4"/><path d="M178.329 135.592c12.335-12.327 12.335-32.312 0-44.64-12.335-12.326-32.333-12.326-44.668 0-12.335 12.328-12.335 32.313 0 44.64 12.335 12.327 32.333 12.327 44.668 0z" fill="#AAB7D5"/><path d="M176.2 134.992c12.335-12.327 12.335-32.313 0-44.64-12.335-12.327-32.333-12.327-44.668 0-12.334 12.327-12.334 32.313 0 44.64 12.335 12.326 32.333 12.326 44.668 0z" fill="url(#paint5_linear_70_1001)"/><path d="M175.496 128.868c8.961-11.939 6.539-28.877-5.408-37.831-11.946-8.955-28.895-6.535-37.855 5.404-8.961 11.939-6.539 28.877 5.408 37.832 11.947 8.954 28.895 6.535 37.855-5.405z" fill="url(#paint6_linear_70_1001)"/><path opacity=".1" d="M128.494 106.609a27.022 27.022 0 0123.162-19.478 27.047 27.047 0 0115.539 3.016 27.02 27.02 0 0111.186 11.193 27.011 27.011 0 00-15.551-14.144 27.04 27.04 0 00-29.463 7.846 27.003 27.003 0 00-3.402 30.281 26.885 26.885 0 01-1.471-18.714z" fill="#000"/><path d="M163.792 117.306a5.603 5.603 0 00-2.203-2.934 6.062 6.062 0 002.242-.854 5.626 5.626 0 002.143-3.253 6.421 6.421 0 00-.061-4.014c-.712-1.913-2.389-3.315-5.03-4.207l.97-3.419-2.688-.76-.965 3.398-3.013-.854.969-3.403-2.688-.765-.959 3.414-3.856-1.101-6.903 24.225 3.856 1.101-.711 2.55 2.689.765.722-2.538 3.013.853-.722 2.544 2.689.76.733-2.588c.726.157 1.462.264 2.204.319a6.88 6.88 0 003.085-.44 7.032 7.032 0 002.264-1.415 7.39 7.39 0 002.176-3.563 6.655 6.655 0 00.044-3.821zm-2.804-7.873a2.372 2.372 0 01-1.592 1.85 5.062 5.062 0 01-2.755-.127l-5.9-1.651 1.526-5.346 5.278 1.503a9.585 9.585 0 012.754 1.189c.788.584 1.014 1.453.689 2.582zm-4.738 12.471a5.949 5.949 0 01-2.578-.275l-5.89-1.652 1.84-6.464 5.972 1.696c.836.21 1.62.584 2.309 1.101a2.712 2.712 0 01.804 3.039c-.422 1.479-1.241 2.331-2.457 2.555z" fill="#4870F4"/><path opacity=".1" d="M219.723 353.776c36.808 0 66.646-11.263 66.646-25.156 0-13.893-29.838-25.156-66.646-25.156s-66.646 11.263-66.646 25.156c0 13.893 29.838 25.156 66.646 25.156z" fill="#11F"/><path d="M286.37 300.298c0-.27 0-.551-.039-.804h.039V162.421l-133.299 3.199v133.896h.039c1.102 13.522 30.516 24.352 66.613 24.352s65.484-10.852 66.608-24.352c0 .27.039.551.039.804 0 2.648-1.102 5.198-3.086 7.587 2.006-2.412 3.086-4.961 3.086-7.609zm-21.079 18.356z" fill="#fff"/><path d="M271.125 316.309zm5.002-2.61c-.76.459-1.557.905-2.391 1.338a48.265 48.265 0 002.391-1.338zm-45.165 11.397zm31.128-5.379z" fill="#fff"/><path opacity=".5" d="M219.723 182.909c-36.808 0-66.663 11.777-66.663 26.306v87.95c0 12.163 29.844 26.946 66.663 26.682 40.444-.287 66.663-14.519 66.663-26.682v-87.944c-.017-14.535-29.855-26.312-66.663-26.312z" fill="url(#paint7_linear_70_1001)"/><path d="M252.267 300.298a167.176 167.176 0 00-65.093 0h-34.103l.072 20.817c-.046.379-.07.759-.072 1.14 0 13.891 29.844 25.156 66.663 25.156 36.819 0 66.663-11.265 66.663-25.156v-21.957h-34.13z" fill="url(#paint8_linear_70_1001)"/><path d="M219.723 325.454c36.808 0 66.646-11.263 66.646-25.156 0-13.893-29.838-25.156-66.646-25.156s-66.646 11.263-66.646 25.156c0 13.893 29.838 25.156 66.646 25.156z" fill="url(#paint9_linear_70_1001)"/><path d="M219.723 323.846c-36.097 0-65.462-10.83-66.613-24.33 0 .27-.039.551-.039.804 0 13.897 29.844 25.156 66.663 25.156 36.819 0 66.663-11.259 66.663-25.156 0-.27 0-.551-.038-.804-1.152 13.5-30.544 24.33-66.636 24.33z" fill="#fff"/><path d="M219.723 319.893c31.614 0 57.242-8.773 57.242-19.595s-25.628-19.595-57.242-19.595c-31.614 0-57.242 8.773-57.242 19.595s25.628 19.595 57.242 19.595z" fill="url(#paint10_linear_70_1001)" opacity=".3"/><path d="M219.723 231.294c36.808 0 66.646-10.832 66.646-24.193s-29.838-24.192-66.646-24.192-66.646 10.831-66.646 24.192 29.838 24.193 66.646 24.193z" fill="url(#paint11_linear_70_1001)" opacity=".5"/><path d="M252.267 146.163a167.176 167.176 0 00-65.093 0h-34.103l.072 20.817a9.87 9.87 0 00-.072 1.14c0 13.891 29.844 25.156 66.663 25.156 36.819 0 66.663-11.265 66.663-25.156v-21.957h-34.13z" fill="url(#paint12_linear_70_1001)"/><path d="M219.723 171.318c36.808 0 66.646-11.262 66.646-25.156 0-13.893-29.838-25.156-66.646-25.156s-66.646 11.263-66.646 25.156c0 13.894 29.838 25.156 66.646 25.156z" fill="url(#paint13_linear_70_1001)"/><path d="M219.723 169.717c-36.097 0-65.462-10.836-66.613-24.363 0 .269-.039.55-.039.803 0 13.897 29.844 25.156 66.663 25.156 36.819 0 66.663-11.259 66.663-25.156 0-.264 0-.55-.038-.803-1.152 13.527-30.544 24.363-66.636 24.363z" fill="#fff"/><path opacity=".1" d="M120.445 345.149c20.623 0 37.342-2.315 37.342-5.17 0-2.856-16.719-5.17-37.342-5.17-20.624 0-37.342 2.314-37.342 5.17 0 2.855 16.718 5.17 37.342 5.17z" fill="#6989FE"/><path d="M143.303 343.469c24.762 0 44.835-20.06 44.835-44.806s-20.073-44.807-44.835-44.807c-24.761 0-44.835 20.061-44.835 44.807 0 24.746 20.074 44.806 44.835 44.806z" fill="#AAB7D5"/><path d="M171.878 330.015c17.509-17.498 17.509-45.868 0-63.366-17.509-17.498-45.897-17.498-63.406 0s-17.509 45.868 0 63.366c17.509 17.498 45.897 17.498 63.406 0z" fill="url(#paint14_linear_70_1001)"/><path d="M173.821 316.793c10.203-18.57 3.41-41.889-15.171-52.086-18.582-10.196-41.917-3.408-52.12 15.162-10.202 18.57-3.41 41.89 15.172 52.086 18.582 10.196 41.916 3.408 52.119-15.162z" fill="url(#paint15_linear_70_1001)"/><path opacity=".1" d="M103.228 296.025a38.324 38.324 0 018.787-20.669 38.363 38.363 0 0118.862-12.207 38.388 38.388 0 0140.832 13.386 38.378 38.378 0 00-40.426-15.545 38.369 38.369 0 00-24.096 17.645 38.316 38.316 0 00-4.129 29.568 38.346 38.346 0 006.781 13.639 38.158 38.158 0 01-6.611-25.817z" fill="#000"/><path d="M155.192 302.407a7.956 7.956 0 00-3.779-3.568 8.55 8.55 0 002.931-1.745c1.234-1.201 1.972-2.891 2.204-5.06a9.103 9.103 0 00-1.058-5.605c-1.469-2.492-4.156-4.045-8.06-4.658l.55-5.016-3.944-.413-.551 4.989-4.408-.468.551-4.989-3.944-.413-.524 4.989-5.691-.595-3.752 35.584 5.647.595-.396 3.727 3.944.419.397-3.728 4.407.463-.391 3.727 3.945.419.402-3.805c1.046.045 2.093.018 3.135-.083a9.824 9.824 0 007.041-3.892 10.46 10.46 0 002.204-5.506 9.404 9.404 0 00-.86-5.368zm-5.834-10.329c-.162 1.498-.753 2.489-1.774 2.973a7.173 7.173 0 01-3.857.485l-8.655-.909.832-7.846 7.741.815c1.428.112 2.83.448 4.154.997 1.215.675 1.735 1.837 1.559 3.485zm-3.592 18.588a8.397 8.397 0 01-3.675.247l-8.644-.908.981-9.487 8.759.92a9.2 9.2 0 013.499.98c1.436.855 2.057 2.206 1.862 4.052-.213 2.191-1.14 3.59-2.782 4.196z" fill="#4870F4"/><path d="M390.044 73.384c12.462-12.453 12.462-32.645 0-45.098-12.462-12.454-32.666-12.454-45.128 0-12.461 12.453-12.461 32.645 0 45.098 12.462 12.454 32.666 12.454 45.128 0z" fill="url(#paint16_linear_70_1001)"/><path d="M401.977 34.687a25.047 25.047 0 00-12.21 3.183 25.026 25.026 0 00-12.792 20.79 25.007 25.007 0 002.667 12.326h-31.485c.201-1.06.303-2.136.303-3.215 0-3.349-.994-6.622-2.856-9.407a16.94 16.94 0 00-17.393-7.198 16.946 16.946 0 00-8.674 4.635 16.927 16.927 0 00-3.669 18.453A16.936 16.936 0 00331.524 84.7h70.453a25.029 25.029 0 0017.694-7.324 25 25 0 007.33-17.683 25 25 0 00-7.33-17.683 25.029 25.029 0 00-17.694-7.325z" fill="url(#paint17_linear_70_1001)"/><path d="M390.031 73.381c12.461-12.454 12.461-32.645 0-45.099-12.462-12.454-32.666-12.454-45.128 0-12.461 12.454-12.461 32.645 0 45.099 12.462 12.454 32.666 12.454 45.128 0z" fill="url(#paint18_linear_70_1001)"/><path d="M331.524 84.68c9.353 0 16.936-7.578 16.936-16.926 0-9.347-7.583-16.924-16.936-16.924s-16.936 7.577-16.936 16.924c0 9.348 7.583 16.925 16.936 16.925z" fill="url(#paint19_linear_70_1001)"/><path d="M419.671 77.359c9.773-9.766 9.773-25.6 0-35.366-9.772-9.766-25.616-9.766-35.388 0-9.772 9.766-9.772 25.6 0 35.366 9.772 9.766 25.616 9.766 35.388 0z" fill="url(#paint20_linear_70_1001)"/><path d="M427.937 88.093a119.008 119.008 0 00-6.556-12.614l-.115.138a118.79 118.79 0 016.517 12.542c6.474 14.689 6.964 25.718 1.383 31.058-2.397 2.285-5.763 3.37-9.867 3.37-15.707 0-42.229-15.896-66.415-41.173-14.787-15.455-26.5-32.071-32.99-46.8-6.49-14.727-6.964-25.717-1.383-31.052 2.375-2.268 5.724-3.397 9.917-3.397 5.652 0 12.809 2.07 21.09 6.166a132.59 132.59 0 0120.241 12.664l.314.027a133.523 133.523 0 00-20.478-12.85c-14.468-7.158-25.536-8.132-31.178-2.753-5.641 5.38-5.184 16.506 1.323 31.267 6.506 14.761 18.224 31.384 33.023 46.833 14.798 15.45 30.907 27.925 45.341 35.066 8.303 4.108 15.487 6.194 21.156 6.194 4.215 0 7.609-1.139 10.011-3.435 5.652-5.407 5.173-16.507-1.334-31.251z" fill="#4870F4"/><path d="M429.282 3.435c-5.642-5.39-16.71-4.404-31.178 2.753-14.467 7.158-30.538 19.6-45.341 35.067-14.804 15.465-26.528 32.099-33.023 46.838-6.496 14.739-6.986 25.877-1.345 31.245 2.403 2.296 5.791 3.436 10.011 3.436 5.68 0 12.864-2.07 21.167-6.178 13.437-6.651 28.318-17.9 42.251-31.9h-.237c-23.293 23.361-48.196 37.891-63.209 37.891-4.11 0-7.47-1.102-9.867-3.37-5.586-5.341-5.096-16.369 1.383-31.058 6.479-14.69 18.181-31.334 32.99-46.8 14.809-15.466 30.852-27.892 45.298-35.028 8.264-4.096 15.426-6.166 21.089-6.166 4.171 0 7.521 1.128 9.917 3.397 5.581 5.335 5.091 16.363-1.383 31.053a114.432 114.432 0 01-5.382 10.593l.11.148a115.421 115.421 0 005.405-10.67c6.506-14.76 6.985-25.877 1.344-31.25z" fill="#4870F4"/><path d="M319.679 15.416a4.793 4.793 0 01-4.077 4.74 4.8 4.8 0 01-5.492-4.312 4.797 4.797 0 014.754-5.223 4.799 4.799 0 014.815 4.795z" fill="url(#paint21_linear_70_1001)"/><path opacity=".2" d="M319.679 15.416a4.793 4.793 0 01-4.077 4.74c2.892-3.941.071-7.768-1.548-9.458.274-.051.553-.077.832-.077a4.801 4.801 0 014.793 4.795z" fill="url(#paint22_linear_70_1001)"/><path d="M433.188 94.347a3.388 3.388 0 01-3.389 3.387 3.389 3.389 0 01-2.697-5.452 3.392 3.392 0 012.697-1.32 3.388 3.388 0 013.389 3.385z" fill="url(#paint23_linear_70_1001)"/><path opacity=".2" d="M433.188 94.347a3.383 3.383 0 01-2.882 3.348c2.044-2.786.05-5.506-1.101-6.684a3.5 3.5 0 01.589-.05 3.383 3.383 0 013.135 2.09c.171.41.259.851.259 1.296z" fill="url(#paint24_linear_70_1001)"/><path d="M369.406 28.404a3.638 3.638 0 01-3.642 3.628 3.631 3.631 0 01-3.59-3.31 3.626 3.626 0 012.957-3.886c.209-.04.421-.06.633-.06a3.635 3.635 0 013.642 3.628z" fill="url(#paint25_linear_70_1001)"/><path opacity=".2" d="M369.406 28.404a3.638 3.638 0 01-3.09 3.59c2.203-2.984.055-5.88-1.174-7.158.209-.04.421-.06.634-.06a3.636 3.636 0 013.63 3.628z" fill="url(#paint26_linear_70_1001)"/><path d="M326.852 120.181a6.39 6.39 0 01-6.402 6.392 6.395 6.395 0 01-4.27-1.705 6.384 6.384 0 013.168-10.958 6.396 6.396 0 017.504 6.271z" fill="url(#paint27_linear_70_1001)"/><path opacity=".2" d="M326.852 120.181a6.39 6.39 0 01-5.438 6.32c3.857-5.252.088-10.356-2.071-12.608a6.415 6.415 0 015.63 1.767 6.392 6.392 0 011.879 4.521z" fill="url(#paint28_linear_70_1001)"/><path d="M385.102 93.224a2.27 2.27 0 01-1.928 2.247 2.31 2.31 0 01-.341 0 2.272 2.272 0 01-2.237-2.072 2.267 2.267 0 011.845-2.427 2.298 2.298 0 011.264.142 2.273 2.273 0 011.397 2.11z" fill="url(#paint29_linear_70_1001)"/><path opacity=".2" d="M385.102 93.224a2.27 2.27 0 01-1.928 2.247c1.366-1.867.033-3.678-.733-4.477a2.271 2.271 0 012.661 2.23z" fill="url(#paint30_linear_70_1001)"/><path d="M435.348 13.005a2.41 2.41 0 01-2.397 2.4 2.398 2.398 0 01-2.41-2.185 2.394 2.394 0 011.991-2.572 2.399 2.399 0 012.816 2.357z" fill="url(#paint31_linear_70_1001)"/><path opacity=".2" d="M435.347 13.005a2.408 2.408 0 01-2.038 2.372c1.443-1.97.033-3.887-.777-4.729a2.399 2.399 0 012.114.663c.449.45.701 1.058.701 1.694z" fill="url(#paint32_linear_70_1001)"/><path d="M50.03 159.299l14.446 7.885 15.018-7.505-14.732-7.983-14.732 7.603z" fill="url(#paint33_linear_70_1001)"/><path d="M50.03 159.299v17.333l14.732 7.911-.286-17.359-14.446-7.885z" fill="url(#paint34_linear_70_1001)"/><path d="M64.476 167.184l.286 17.359 14.732-8.264v-16.6l-15.018 7.505z" fill="url(#paint35_linear_70_1001)"/><path opacity=".5" d="M50.03 176.659l14.446 7.885 15.018-8.265-14.732-7.223-14.732 7.603z" fill="url(#paint36_linear_70_1001)"/><path d="M204.986 36.867l9.267 5.054 9.63-4.812-9.449-5.12-9.448 4.878z" fill="url(#paint37_linear_70_1001)"/><path d="M204.986 36.867v11.116l9.448 5.07-.181-11.132-9.267-5.054z" fill="url(#paint38_linear_70_1001)"/><path d="M214.252 41.921l.182 11.133 9.449-5.302V37.109l-9.631 4.812z" fill="url(#paint39_linear_70_1001)"/><path opacity=".5" d="M204.986 48l9.267 5.054 9.63-5.302-9.449-4.625L204.986 48z" fill="url(#paint40_linear_70_1001)"/><path d="M352.696 247.723l9.267 5.054 9.63-4.812-9.448-5.115-9.449 4.873z" fill="url(#paint41_linear_70_1001)"/><path d="M352.696 247.723v11.116l9.449 5.071-.182-11.133-9.267-5.054z" fill="url(#paint42_linear_70_1001)"/><path d="M361.963 252.777l.182 11.133 9.448-5.296v-10.649l-9.63 4.812z" fill="url(#paint43_linear_70_1001)"/><path opacity=".5" d="M352.696 258.856l9.267 5.054 9.63-5.297-9.448-4.63-9.449 4.873z" fill="url(#paint44_linear_70_1001)"/><path d="M93.042 62.094H47.518v55.141h45.524v-55.14z" fill="url(#paint45_linear_70_1001)"/><path d="M64.26 62.094H47.519v55.141h16.743v-55.14z" fill="url(#paint46_linear_70_1001)"/><path d="M77.962 5.528L45.077 65.393l68.321-4.697L77.962 5.528z" fill="url(#paint47_linear_70_1001)"/><path d="M29.905 61.775l65.192-5.87 18.302 4.79-68.322 4.697-15.172-3.617z" fill="url(#paint48_linear_70_1001)"/><path d="M77.963 5.528H61.914l-32.01 56.247 15.174 3.618" fill="url(#paint49_linear_70_1001)"/><path opacity=".5" d="M77.963 5.528L70.966 18.29l24.797 37.616 18.302 4.79L77.963 5.528z" fill="url(#paint50_linear_70_1001)"/><path d="M427.96 216.758h-28.241v34.202h28.241v-34.202z" fill="url(#paint51_linear_70_1001)"/><path d="M410.104 216.758h-10.385v34.202h10.385v-34.202z" fill="url(#paint52_linear_70_1001)"/><path d="M418.605 181.669l-20.401 37.132 42.377-2.913-21.976-34.219z" fill="url(#paint53_linear_70_1001)"/><path d="M388.793 216.56l40.433-3.645 11.355 2.973-42.378 2.913-9.41-2.241z" fill="url(#paint54_linear_70_1001)"/><path d="M418.604 181.669h-9.96l-19.851 34.891 9.41 2.241" fill="url(#paint55_linear_70_1001)"/><path opacity=".5" d="M418.605 181.669l-4.342 7.918 15.382 23.328L441 215.888l-22.395-34.219z" fill="url(#paint56_linear_70_1001)"/><defs><linearGradient id="paint0_linear_70_1001" x1="222.357" y1="337.732" x2="222.357" y2="92.597" gradientUnits="userSpaceOnUse"><stop stop-color="#FBFAFD"/><stop offset="1" stop-color="#4870F4" stop-opacity="0"/></linearGradient><linearGradient id="paint1_linear_70_1001" x1="104.534" y1="351.398" x2="369.659" y2="342.941" gradientUnits="userSpaceOnUse"><stop stop-color="#E5E8F7"/><stop offset="1" stop-color="#FBFAFD"/></linearGradient><linearGradient id="paint2_linear_70_1001" x1="104.468" y1="338.547" x2="369.296" y2="330.095" gradientUnits="userSpaceOnUse"><stop stop-color="#FBFAFD"/><stop offset="1" stop-color="#E5E8F7"/></linearGradient><linearGradient id="paint3_linear_70_1001" x1="310.28" y1="213.16" x2="306.325" y2="148.99" gradientUnits="userSpaceOnUse"><stop stop-color="#DCE8FC"/><stop offset="1" stop-color="#E8EDFC"/></linearGradient><linearGradient id="paint4_linear_70_1001" x1="298.69" y1="155.559" x2="315.696" y2="200.381" gradientUnits="userSpaceOnUse"><stop stop-color="#DCE8FC"/><stop offset="1" stop-color="#E8EDFC"/></linearGradient><linearGradient id="paint5_linear_70_1001" x1="138.735" y1="136.393" x2="168.772" y2="89.255" gradientUnits="userSpaceOnUse"><stop stop-color="#DCE8FC"/><stop offset="1" stop-color="#E8EDFC"/></linearGradient><linearGradient id="paint6_linear_70_1001" x1="160.06" y1="89.942" x2="149.107" y2="130.144" gradientUnits="userSpaceOnUse"><stop stop-color="#DCE8FC"/><stop offset="1" stop-color="#E8EDFC"/></linearGradient><linearGradient id="paint7_linear_70_1001" x1="173.836" y1="254.826" x2="277.411" y2="251.518" gradientUnits="userSpaceOnUse"><stop stop-color="#4870F4"/><stop offset="1" stop-color="#E8EDFC"/></linearGradient><linearGradient id="paint8_linear_70_1001" x1="174.888" y1="323.681" x2="276.855" y2="320.429" gradientUnits="userSpaceOnUse"><stop stop-color="#E8EDFC"/><stop offset="1" stop-color="#DCE8FC"/></linearGradient><linearGradient id="paint9_linear_70_1001" x1="174.778" y1="301.73" x2="276.216" y2="298.494" gradientUnits="userSpaceOnUse"><stop stop-color="#DCE8FC"/><stop offset="1" stop-color="#E8EDFC"/></linearGradient><linearGradient id="paint10_linear_70_1001" x1="181.119" y1="301.531" x2="268.238" y2="298.747" gradientUnits="userSpaceOnUse"><stop stop-color="#4870F4"/><stop offset="1" stop-color="#E8EDFC"/></linearGradient><linearGradient id="paint11_linear_70_1001" x1="174.778" y1="208.533" x2="276.216" y2="205.297" gradientUnits="userSpaceOnUse"><stop stop-color="#4870F4"/><stop offset="1" stop-color="#E8EDFC"/></linearGradient><linearGradient id="paint12_linear_70_1001" x1="174.888" y1="169.551" x2="276.855" y2="166.293" gradientUnits="userSpaceOnUse"><stop stop-color="#E8EDFC"/><stop offset="1" stop-color="#DCE8FC"/></linearGradient><linearGradient id="paint13_linear_70_1001" x1="174.778" y1="147.599" x2="276.216" y2="144.358" gradientUnits="userSpaceOnUse"><stop stop-color="#DCE8FC"/><stop offset="1" stop-color="#E8EDFC"/></linearGradient><linearGradient id="paint14_linear_70_1001" x1="124.762" y1="335.186" x2="155.31" y2="261.977" gradientUnits="userSpaceOnUse"><stop stop-color="#DCE8FC"/><stop offset="1" stop-color="#E8EDFC"/></linearGradient><linearGradient id="paint15_linear_70_1001" x1="144.146" y1="264.461" x2="138.82" y2="323.318" gradientUnits="userSpaceOnUse"><stop stop-color="#DCE8FC"/><stop offset="1" stop-color="#E8EDFC"/></linearGradient><linearGradient id="paint16_linear_70_1001" x1="335.568" y1="50.833" x2="399.388" y2="50.833" gradientUnits="userSpaceOnUse"><stop stop-color="#4870F4"/><stop offset="1" stop-color="#E8EDFC"/></linearGradient><linearGradient id="paint17_linear_70_1001" x1="314.583" y1="59.677" x2="427.001" y2="59.677" gradientUnits="userSpaceOnUse"><stop stop-color="#4870F4"/><stop offset="1" stop-color="#E8EDFC"/></linearGradient><linearGradient id="paint18_linear_70_1001" x1="339.307" y1="30.346" x2="382.415" y2="61.75" gradientUnits="userSpaceOnUse"><stop stop-color="#4870F4"/><stop offset="1" stop-color="#E8EDFC"/></linearGradient><linearGradient id="paint19_linear_70_1001" x1="316.814" y1="58.13" x2="345.859" y2="77.159" gradientUnits="userSpaceOnUse"><stop stop-color="#4870F4"/><stop offset="1" stop-color="#E8EDFC" stop-opacity="0"/></linearGradient><linearGradient id="paint20_linear_70_1001" x1="382.102" y1="41.608" x2="413.873" y2="70.534" gradientUnits="userSpaceOnUse"><stop stop-color="#4870F4"/><stop offset="1" stop-color="#E8EDFC" stop-opacity="0"/></linearGradient><linearGradient id="paint21_linear_70_1001" x1="310.087" y1="15.416" x2="319.679" y2="15.416" gradientUnits="userSpaceOnUse"><stop stop-color="#4870F4"/><stop offset="1" stop-color="#E8EDFC"/></linearGradient><linearGradient id="paint22_linear_70_1001" x1="314.054" y1="15.389" x2="319.679" y2="15.389" gradientUnits="userSpaceOnUse"><stop stop-color="#4870F4"/><stop offset="1" stop-color="#E8EDFC"/></linearGradient><linearGradient id="paint23_linear_70_1001" x1="426.411" y1="94.347" x2="433.188" y2="94.347" gradientUnits="userSpaceOnUse"><stop stop-color="#4870F4"/><stop offset="1" stop-color="#E8EDFC"/></linearGradient><linearGradient id="paint24_linear_70_1001" x1="429.21" y1="94.326" x2="433.188" y2="94.326" gradientUnits="userSpaceOnUse"><stop stop-color="#4870F4"/><stop offset="1" stop-color="#E8EDFC"/></linearGradient><linearGradient id="paint25_linear_70_1001" x1="362.145" y1="28.404" x2="369.406" y2="28.404" gradientUnits="userSpaceOnUse"><stop stop-color="#4870F4"/><stop offset="1" stop-color="#E8EDFC"/></linearGradient><linearGradient id="paint26_linear_70_1001" x1="365.142" y1="28.388" x2="369.406" y2="28.388" gradientUnits="userSpaceOnUse"><stop stop-color="#4870F4"/><stop offset="1" stop-color="#E8EDFC"/></linearGradient><linearGradient id="paint27_linear_70_1001" x1="314.059" y1="120.186" x2="326.852" y2="120.186" gradientUnits="userSpaceOnUse"><stop stop-color="#4870F4"/><stop offset="1" stop-color="#E8EDFC"/></linearGradient><linearGradient id="paint28_linear_70_1001" x1="319.343" y1="120.148" x2="326.852" y2="120.148" gradientUnits="userSpaceOnUse"><stop stop-color="#4870F4"/><stop offset="1" stop-color="#E8EDFC"/></linearGradient><linearGradient id="paint29_linear_70_1001" x1="380.541" y1="93.224" x2="385.08" y2="93.224" gradientUnits="userSpaceOnUse"><stop stop-color="#4870F4"/><stop offset="1" stop-color="#E8EDFC"/></linearGradient><linearGradient id="paint30_linear_70_1001" x1="382.419" y1="93.213" x2="385.08" y2="93.213" gradientUnits="userSpaceOnUse"><stop stop-color="#4870F4"/><stop offset="1" stop-color="#E8EDFC"/></linearGradient><linearGradient id="paint31_linear_70_1001" x1="430.554" y1="13.005" x2="435.348" y2="13.005" gradientUnits="userSpaceOnUse"><stop stop-color="#4870F4"/><stop offset="1" stop-color="#E8EDFC"/></linearGradient><linearGradient id="paint32_linear_70_1001" x1="432.532" y1="12.993" x2="435.347" y2="12.993" gradientUnits="userSpaceOnUse"><stop stop-color="#4870F4"/><stop offset="1" stop-color="#E8EDFC"/></linearGradient><linearGradient id="paint33_linear_70_1001" x1="54.829" y1="159.751" x2="77.241" y2="159.034" gradientUnits="userSpaceOnUse"><stop stop-color="#4870F4"/><stop offset="1" stop-color="#E8EDFC"/></linearGradient><linearGradient id="paint34_linear_70_1001" x1="52.278" y1="172.084" x2="63.506" y2="171.725" gradientUnits="userSpaceOnUse"><stop stop-color="#4870F4"/><stop offset="1" stop-color="#E8EDFC"/></linearGradient><linearGradient id="paint35_linear_70_1001" x1="66.894" y1="172.277" x2="78.706" y2="171.902" gradientUnits="userSpaceOnUse"><stop stop-color="#4870F4"/><stop offset="1" stop-color="#E8EDFC"/></linearGradient><linearGradient id="paint36_linear_70_1001" x1="54.834" y1="177.111" x2="77.263" y2="176.394" gradientUnits="userSpaceOnUse"><stop stop-color="#4870F4"/><stop offset="1" stop-color="#E8EDFC"/></linearGradient><linearGradient id="paint37_linear_70_1001" x1="208.066" y1="37.159" x2="222.439" y2="36.696" gradientUnits="userSpaceOnUse"><stop stop-color="#4870F4"/><stop offset="1" stop-color="#E8EDFC"/></linearGradient><linearGradient id="paint38_linear_70_1001" x1="206.435" y1="45.065" x2="213.63" y2="44.833" gradientUnits="userSpaceOnUse"><stop stop-color="#4870F4"/><stop offset="1" stop-color="#E8EDFC"/></linearGradient><linearGradient id="paint39_linear_70_1001" x1="215.801" y1="45.186" x2="223.381" y2="44.943" gradientUnits="userSpaceOnUse"><stop stop-color="#4870F4"/><stop offset="1" stop-color="#E8EDFC"/></linearGradient><linearGradient id="paint40_linear_70_1001" x1="208.071" y1="48.291" x2="222.456" y2="47.828" gradientUnits="userSpaceOnUse"><stop stop-color="#4870F4"/><stop offset="1" stop-color="#E8EDFC"/></linearGradient><linearGradient id="paint41_linear_70_1001" x1="355.776" y1="248.015" x2="370.15" y2="247.557" gradientUnits="userSpaceOnUse"><stop stop-color="#4870F4"/><stop offset="1" stop-color="#E8EDFC"/></linearGradient><linearGradient id="paint42_linear_70_1001" x1="354.14" y1="255.921" x2="361.34" y2="255.69" gradientUnits="userSpaceOnUse"><stop stop-color="#4870F4"/><stop offset="1" stop-color="#E8EDFC"/></linearGradient><linearGradient id="paint43_linear_70_1001" x1="363.511" y1="256.048" x2="371.086" y2="255.805" gradientUnits="userSpaceOnUse"><stop stop-color="#4870F4"/><stop offset="1" stop-color="#E8EDFC"/></linearGradient><linearGradient id="paint44_linear_70_1001" x1="355.776" y1="259.147" x2="370.161" y2="258.69" gradientUnits="userSpaceOnUse"><stop stop-color="#4870F4"/><stop offset="1" stop-color="#E8EDFC"/></linearGradient><linearGradient id="paint45_linear_70_1001" x1="70.277" y1="117.24" x2="70.277" y2="62.094" gradientUnits="userSpaceOnUse"><stop stop-color="#E8EDFC" stop-opacity="0"/><stop offset="1" stop-color="#4870F4"/></linearGradient><linearGradient id="paint46_linear_70_1001" x1="55.892" y1="117.24" x2="55.892" y2="62.094" gradientUnits="userSpaceOnUse"><stop stop-color="#4870F4" stop-opacity="0"/><stop offset="1" stop-color="#E8EDFC"/></linearGradient><linearGradient id="paint47_linear_70_1001" x1="45.077" y1="35.457" x2="113.398" y2="35.457" gradientUnits="userSpaceOnUse"><stop stop-color="#4870F4"/><stop offset="1" stop-color="#E8EDFC"/></linearGradient><linearGradient id="paint48_linear_70_1001" x1="29.905" y1="60.646" x2="113.399" y2="60.646" gradientUnits="userSpaceOnUse"><stop stop-color="#4870F4"/><stop offset="1" stop-color="#E8EDFC"/></linearGradient><linearGradient id="paint49_linear_70_1001" x1="29.905" y1="35.457" x2="77.963" y2="35.457" gradientUnits="userSpaceOnUse"><stop stop-color="#4870F4"/><stop offset="1" stop-color="#E8EDFC"/></linearGradient><linearGradient id="paint50_linear_70_1001" x1="70.966" y1="33.112" x2="114.065" y2="33.112" gradientUnits="userSpaceOnUse"><stop stop-color="#E8EDFC"/><stop offset="1" stop-color="#4870F4"/></linearGradient><linearGradient id="paint51_linear_70_1001" x1="413.834" y1="250.966" x2="413.834" y2="216.758" gradientUnits="userSpaceOnUse"><stop stop-color="#E8EDFC" stop-opacity="0"/><stop offset="1" stop-color="#4870F4"/></linearGradient><linearGradient id="paint52_linear_70_1001" x1="404.909" y1="250.966" x2="404.909" y2="216.758" gradientUnits="userSpaceOnUse"><stop stop-color="#4870F4" stop-opacity="0"/><stop offset="1" stop-color="#E8EDFC"/></linearGradient><linearGradient id="paint53_linear_70_1001" x1="398.204" y1="200.235" x2="440.581" y2="200.235" gradientUnits="userSpaceOnUse"><stop stop-color="#4870F4"/><stop offset="1" stop-color="#E8EDFC"/></linearGradient><linearGradient id="paint54_linear_70_1001" x1="388.788" y1="215.861" x2="440.581" y2="215.861" gradientUnits="userSpaceOnUse"><stop stop-color="#4870F4"/><stop offset="1" stop-color="#E8EDFC"/></linearGradient><linearGradient id="paint55_linear_70_1001" x1="388.788" y1="200.235" x2="418.604" y2="200.235" gradientUnits="userSpaceOnUse"><stop stop-color="#4870F4"/><stop offset="1" stop-color="#E8EDFC"/></linearGradient><linearGradient id="paint56_linear_70_1001" x1="414.263" y1="198.782" x2="441" y2="198.782" gradientUnits="userSpaceOnUse"><stop stop-color="#E8EDFC"/><stop offset="1" stop-color="#4870F4"/></linearGradient></defs></svg>