<svg width="24" height="24" fill="none" xmlns="http://www.w3.org/2000/svg"><path d="M0 12C0 5.373 5.373 0 12 0s12 5.373 12 12-5.373 12-12 12S0 18.627 0 12z" fill="#4C6C91"/><path d="M12.628 15.938s.23-.025.35-.15c.107-.114.104-.33.104-.33s-.015-1.007.462-1.156c.47-.146 1.072.974 1.712 1.405.483.325.85.254.85.254l1.71-.023s.894-.054.47-.744c-.035-.057-.247-.511-1.27-1.444-1.073-.976-.93-.818.362-2.508.786-1.029 1.1-1.657 1.002-1.925-.093-.257-.672-.189-.672-.189l-1.924.012s-.143-.02-.249.043c-.103.06-.17.203-.17.203s-.304.796-.71 1.473c-.858 1.428-1.2 1.504-1.34 1.415-.327-.207-.245-.83-.245-1.274 0-1.384.214-1.961-.417-2.11-.209-.05-.363-.083-.898-.089-.687-.006-1.268.003-1.597.16-.219.106-.388.34-.285.354.127.017.415.076.568.28.197.264.19.855.19.855s.114 1.63-.264 1.832c-.26.139-.615-.144-1.38-1.44-.39-.664-.686-1.398-.686-1.398s-.057-.137-.16-.21c-.123-.09-.295-.117-.295-.117l-1.829.011s-.274.008-.375.125c-.09.104-.007.32-.007.32s1.432 3.288 3.053 4.945c1.487 1.52 3.175 1.42 3.175 1.42h.765z" fill="#fff"/></svg>