<svg width="24" height="24" fill="none" xmlns="http://www.w3.org/2000/svg"><path d="M0 12C0 5.373 5.373 0 12 0s12 5.373 12 12-5.373 12-12 12S0 18.627 0 12z" fill="red"/><path d="M18.133 9.037A1.625 1.625 0 0017 7.875c-.998-.275-5-.275-5-.275s-4.004 0-5.002.275c-.55.15-.984.596-1.131 1.162C5.6 10.062 5.6 12.2 5.6 12.2s0 2.139.268 3.164c.147.565.58 1.01 1.131 1.162C7.997 16.8 12 16.8 12 16.8s4.003 0 5-.274a1.628 1.628 0 001.133-1.162c.267-1.026.267-3.164.267-3.164s0-2.138-.267-3.163z" fill="#fff"/><path d="M10.8 14.4v-4l3.2 2-3.2 2z" fill="red"/></svg>