<svg width="112" height="29" fill="none" xmlns="http://www.w3.org/2000/svg"><path d="M31.754 16.686a.387.387 0 01-.112.267.363.363 0 01-.261.108h-6.876c.176 1.758 1.452 3.366 3.256 3.366 1.235 0 2.147-.483 2.832-1.5a.378.378 0 01.128-.13.362.362 0 01.172-.053.324.324 0 01.245.1.345.345 0 01.097.254.34.34 0 01-.051.182c-.695 1.243-2.074 1.854-3.423 1.854-2.312 0-3.971-2.143-3.971-4.426 0-2.283 1.648-4.426 3.971-4.426 2.323 0 3.983 2.122 3.993 4.404zm-.736-.332c-.146-1.757-1.452-3.365-3.257-3.365-1.804 0-3.08 1.608-3.256 3.365h6.513zm9.094-3.901a.35.35 0 01.24.107.37.37 0 01.08.384.345.345 0 01-.187.192.324.324 0 01-.133.025h-1.846v7.49a.363.363 0 01-.1.25.34.34 0 01-.242.104.347.347 0 01-.239-.106.37.37 0 01-.103-.247V13.16h-1.773a.324.324 0 01-.245-.101.345.345 0 01-.098-.253.367.367 0 01.102-.25.34.34 0 01.24-.104h1.774V9.72c0-.09.032-.178.089-.246a.365.365 0 01.222-.129.329.329 0 01.27.086.351.351 0 01.114.268v2.754h1.835zm11.252 3.622v4.534a.37.37 0 01-.103.247.347.347 0 01-.239.106.322.322 0 01-.245-.1.345.345 0 01-.097-.253v-4.534c0-1.532-.84-3.054-2.489-3.054-2.115 0-3.028 1.908-2.904 3.869 0 .053.021.278.021.31v3.398a.39.39 0 01-.089.247.366.366 0 01-.222.128.328.328 0 01-.27-.086.35.35 0 01-.114-.268V5.712a.37.37 0 01.102-.25.34.34 0 01.24-.104.35.35 0 01.24.107.37.37 0 01.103.247v8.424c.59-1.094 1.649-1.833 2.883-1.833 2.032 0 3.183 1.833 3.183 3.772zm12.351.611a.387.387 0 01-.111.267.363.363 0 01-.262.108h-6.875c.176 1.758 1.451 3.366 3.256 3.366 1.234 0 2.147-.483 2.83-1.5a.363.363 0 01.3-.182.324.324 0 01.246.1.345.345 0 01.098.253.341.341 0 01-.052.182c-.695 1.243-2.074 1.854-3.422 1.854-2.313 0-3.972-2.143-3.972-4.426 0-2.283 1.649-4.426 3.972-4.426 2.302 0 3.982 2.122 3.992 4.404zm-.746-.332c-.145-1.757-1.452-3.365-3.257-3.365-1.804 0-3.08 1.608-3.256 3.365h6.513zm9.199-3.569a.37.37 0 01-.084.262.346.346 0 01-.238.124c-2.022.311-2.935 2.015-2.935 3.998v3.397c0 .09-.031.178-.088.247a.366.366 0 01-.223.128.328.328 0 01-.27-.086.352.352 0 01-.114-.268V12.84a.39.39 0 01.089-.247.366.366 0 01.222-.128.328.328 0 01.27.086.349.349 0 01.114.268v1.575c.57-.997 1.7-1.94 2.883-1.94.176 0 .374.129.374.332zm11.303 3.901a.388.388 0 01-.112.267.363.363 0 01-.261.108h-6.876c.177 1.758 1.452 3.366 3.257 3.366 1.234 0 2.146-.483 2.83-1.5a.378.378 0 01.13-.13.362.362 0 01.172-.053.324.324 0 01.244.1.345.345 0 01.098.254.34.34 0 01-.052.182c-.695 1.243-2.074 1.854-3.422 1.854-2.313 0-3.972-2.143-3.972-4.426 0-2.283 1.649-4.426 3.972-4.426s3.982 2.122 3.992 4.404zm-.736-.332c-.145-1.757-1.452-3.365-3.256-3.365-1.805 0-3.08 1.608-3.257 3.365h6.513zm11.853-3.483v7.78a.37.37 0 01-.103.248.347.347 0 01-.24.106.322.322 0 01-.244-.1.345.345 0 01-.097-.253v-1.48c-.57 1.169-1.577 2.015-2.862 2.015-2.043 0-3.174-1.832-3.174-3.772V12.86a.364.364 0 01.101-.249.34.34 0 01.241-.104c.09.002.176.04.24.106a.37.37 0 01.103.247v4.555c0 1.533.84 3.054 2.489 3.054 2.312 0 2.862-2.24 2.862-4.715V12.85a.368.368 0 01.15-.291.34.34 0 01.316-.042.38.38 0 01.16.144.399.399 0 01.058.21zM112 16.043v4.555a.37.37 0 01-.103.247.347.347 0 01-.239.107.33.33 0 01-.319-.217.337.337 0 01-.023-.137v-4.555c0-1.532-.84-3.032-2.489-3.032-2.074 0-2.862 2.293-2.862 4.072v3.515a.371.371 0 01-.104.247.346.346 0 01-.239.107.322.322 0 01-.245-.1.355.355 0 01-.097-.253v-4.556c0-1.532-.84-3.032-2.489-3.032-2.095 0-2.955 1.704-2.883 3.976 0 .053.021.15 0 .182v3.418a.387.387 0 01-.088.247.365.365 0 01-.223.128.33.33 0 01-.27-.085.348.348 0 01-.114-.268v-7.77c0-.09.032-.178.09-.247a.365.365 0 01.222-.128.328.328 0 01.27.086.352.352 0 01.113.268v1.296c.591-1.093 1.649-1.81 2.883-1.81 1.4 0 2.489.92 2.935 2.26.57-1.328 1.68-2.26 3.101-2.26 2.022 0 3.173 1.81 3.173 3.74z" fill="#3B3B3B"/><path opacity=".6" d="M8.607 10.727L0 14.767l8.607 5.263 8.618-5.262-8.618-4.04z" fill="#000"/><path opacity=".45" d="M0 14.768l8.607 5.262V0L0 14.768z" fill="#000"/><path opacity=".8" d="M8.607 0v20.03l8.618-5.262L8.607 0z" fill="#000"/><path opacity=".45" d="M0 16.461l8.607 12.54v-7.288L0 16.46z" fill="#000"/><path opacity=".8" d="M8.607 21.713V29l8.618-12.539-8.618 5.252z" fill="#000"/></svg>