<svg width="98" height="20" fill="none" xmlns="http://www.w3.org/2000/svg"><g clip-path="url(#clip0_70_696)"><path d="M20.154 12.42c-1.367 5.358-6.918 8.618-12.4 7.282C2.274 18.366-1.062 12.94.305 7.583 1.671 2.226 7.223-1.035 12.703.301c5.482 1.335 8.817 6.762 7.45 12.12z" fill="#F7931A"/><path d="M14.74 8.577c.205-1.33-.832-2.046-2.25-2.523l.46-1.803-1.122-.273-.448 1.755c-.295-.072-.598-.14-.9-.207l.452-1.767-1.122-.273-.46 1.802a38.274 38.274 0 01-.717-.165v-.006L7.087 4.74l-.3 1.17s.833.187.815.199c.455.11.537.405.524.638L7.602 8.8c.031.008.072.02.117.037l-.12-.03-.733 2.877c-.056.135-.197.338-.515.261.011.016-.816-.199-.816-.199l-.557 1.256 1.46.356c.273.066.539.136.801.202l-.464 1.823 1.121.273.46-1.803c.306.08.604.156.895.226l-.459 1.796 1.123.273.464-1.82c1.915.354 3.354.212 3.96-1.48.488-1.363-.024-2.149-1.032-2.661.734-.166 1.287-.637 1.434-1.611zm-2.564 3.515c-.347 1.362-2.694.626-3.455.441l.616-2.415c.761.185 3.202.553 2.839 1.974zm.347-3.535c-.316 1.24-2.27.61-2.904.455l.56-2.19c.633.154 2.674.442 2.344 1.735z" fill="#fff"/><path d="M29.983 6.052c.83 0 1.546.145 2.149.43a4.311 4.311 0 011.505 1.165c.395.49.69 1.064.88 1.721.188.659.283 1.367.283 2.126a8.354 8.354 0 01-.66 3.303 8.55 8.55 0 01-1.8 2.709 8.474 8.474 0 01-2.693 1.82c-1.034.448-2.158.671-3.365.671-.156 0-.43-.004-.817-.012a12.209 12.209 0 01-1.332-.113 15.952 15.952 0 01-1.593-.305 8.108 8.108 0 01-1.594-.556L25.426.612 29.44.004l-1.604 6.53c.343-.152.69-.27 1.035-.354a4.698 4.698 0 011.113-.128zm-3.366 10.834a3.58 3.58 0 001.709-.43 4.477 4.477 0 001.387-1.152 5.774 5.774 0 00.918-1.633c.224-.607.337-1.24.337-1.9 0-.81-.138-1.44-.414-1.897-.276-.455-.786-.684-1.528-.684-.243 0-.556.045-.944.126-.39.086-.738.265-1.05.533l-1.709 6.934c.104.018.195.035.272.05a2.875 2.875 0 00.556.052l.466.001zm12.344 2.759h-3.833l3.237-13.31h3.86l-3.264 13.31zm1.865-14.933c-.535 0-1.02-.155-1.45-.467-.434-.31-.649-.787-.649-1.43 0-.354.074-.686.22-1 .147-.312.34-.58.583-.81.242-.226.523-.408.841-.544a2.62 2.62 0 011.025-.202c.534 0 1.017.156 1.449.468.43.313.647.79.647 1.43 0 .355-.074.688-.22 1-.147.313-.34.582-.583.811-.24.227-.523.408-.84.543-.321.137-.66.201-1.023.201zm4.757-1.695l4.014-.607-.986 3.923h4.3l-.777 3.087h-4.273l-1.138 4.656a5.11 5.11 0 00-.181 1.088c-.02.338.024.629.128.874.103.245.288.434.557.568.267.136.65.204 1.152.204a6.22 6.22 0 001.206-.115c.387-.075.78-.179 1.176-.316l.286 2.887c-.518.185-1.079.345-1.683.48-.605.136-1.322.201-2.15.201-1.19 0-2.114-.173-2.771-.517-.657-.346-1.121-.82-1.4-1.419-.273-.597-.396-1.286-.362-2.061.036-.778.156-1.595.363-2.455l2.539-10.478zm7.159 11.313c0-1.147.19-2.228.57-3.24a7.935 7.935 0 011.632-2.66 7.643 7.643 0 012.578-1.795c1.007-.438 2.134-.658 3.377-.658.778 0 1.473.071 2.084.215.614.146 1.17.334 1.672.57l-1.322 2.937a12.58 12.58 0 00-1.074-.367c-.371-.112-.824-.165-1.36-.165-1.279 0-2.29.43-3.043 1.29-.75.86-1.127 2.016-1.127 3.468 0 .86.19 1.556.57 2.088.38.532 1.08.797 2.098.797a6.87 6.87 0 001.45-.151 7.39 7.39 0 001.244-.38l.286 3.011c-.485.184-1.02.35-1.606.495-.587.14-1.287.213-2.098.213-1.071 0-1.977-.153-2.719-.454-.742-.306-1.355-.713-1.837-1.228a4.602 4.602 0 01-1.05-1.81 7.273 7.273 0 01-.325-2.176zm17.026 5.668c-.915 0-1.71-.136-2.383-.405-.673-.27-1.23-.648-1.67-1.14a4.891 4.891 0 01-.996-1.732c-.226-.666-.335-1.404-.335-2.213 0-1.014.166-2.027.503-3.038a8.539 8.539 0 011.49-2.733 7.915 7.915 0 012.407-1.99c.947-.512 2.037-.77 3.261-.77.898 0 1.689.136 2.372.406.68.269 1.24.65 1.683 1.139.438.49.77 1.066.995 1.734.225.665.336 1.404.336 2.213a9.887 9.887 0 01-.49 3.039 8.709 8.709 0 01-1.45 2.733 7.558 7.558 0 01-2.395 1.985c-.958.514-2.068.773-3.328.773zm1.915-10.831a2.46 2.46 0 00-1.5.48 4.166 4.166 0 00-1.087 1.215 5.927 5.927 0 00-.662 1.607 6.782 6.782 0 00-.219 1.657c0 .845.14 1.503.414 1.976.277.471.777.708 1.502.708.57 0 1.07-.16 1.503-.482.429-.32.792-.725 1.086-1.214a5.935 5.935 0 00.662-1.607 6.868 6.868 0 00.22-1.658c0-.842-.14-1.502-.416-1.974-.276-.471-.778-.708-1.503-.708zm9.925 10.478h-3.836l3.237-13.31h3.86l-3.261 13.31zM83.47 4.712a2.41 2.41 0 01-1.449-.467c-.432-.31-.648-.787-.648-1.43 0-.354.074-.686.22-1 .146-.312.341-.58.583-.81.241-.226.524-.408.842-.544.318-.135.66-.202 1.021-.202.536 0 1.02.156 1.451.468.431.313.65.79.65 1.43 0 .355-.078.688-.223 1-.145.313-.34.582-.581.811a2.85 2.85 0 01-.84.543 2.583 2.583 0 01-1.026.201zm4.162 2.227c.29-.083.615-.183.969-.292a14.591 14.591 0 012.668-.53 17.03 17.03 0 011.85-.09c2.021 0 3.415.575 4.184 1.722.769 1.148.902 2.718.403 4.707l-1.763 7.188h-3.858l1.709-7.036c.104-.44.186-.864.246-1.28.061-.41.058-.773-.014-1.087a1.298 1.298 0 00-.477-.76c-.253-.194-.635-.29-1.154-.29-.5 0-1.008.052-1.527.153l-2.512 10.3h-3.86l3.136-12.705z" fill="#4D4D4D"/></g><defs><clipPath id="clip0_70_696"><path fill="#fff" d="M0 0h98v20H0z"/></clipPath></defs></svg>