<svg width="99" height="30" fill="none" xmlns="http://www.w3.org/2000/svg"><path d="M6.465 15.218C3.26 7.198.757.484.888.31 1.064.18 6.29.964 12.481 2.054l11.33 2.048 2.942 2.921 2.898 2.964-8.168 9.895c-4.523 5.449-8.43 9.895-8.694 9.895-.264.043-3.074-6.539-6.324-14.56zm6.85 2.92c.396-3.182.66-5.84.572-5.928-.088-.043-1.845-1.482-3.909-3.138-5.84-4.752-5.445-4.534-4.742-2.79.351.828 2.107 5.187 3.908 9.677 1.8 4.446 3.293 8.064 3.337 8.02.044-.043.44-2.659.835-5.84zm6.895-.305c2.81-3.356 5.006-6.146 4.962-6.233-.131-.13-8.695 1.308-8.958 1.482-.22.13-1.361 8.761-1.405 10.156 0 .567.088.96.175.872.088-.087 2.46-2.92 5.226-6.277zm2.635-8.064l3.03-.567-1.318-1.307c-1.493-1.482-1.624-1.439-4.918 1.438-1.142 1.003-1.317 1.308-.659 1.134.483-.088 2.24-.436 3.865-.698zm-4.918-1.83c1.493-1.265 2.547-2.31 2.327-2.398-1.45-.349-13.086-2.31-13.35-2.223-.35.13 7.422 6.8 7.992 6.843.132.044 1.494-.959 3.03-2.223zm74.783 9.676l-5.225-6.102-.132 5.448c-.088 5.1-.175 5.449-.966 5.449-.834 0-.878-.349-.878-8.064 0-4.446.088-8.064.175-8.064.132 0 2.547 2.659 5.402 5.928l5.181 5.928.132-5.274c.088-4.926.176-5.275.966-5.275.835 0 .879.35.879 8.064 0 4.447-.044 8.065-.132 8.065-.088 0-2.503-2.747-5.401-6.103zm-53.75-.435c0-4.926.045-5.231.88-5.231.833 0 .877.305.877 5.23 0 4.926-.044 5.231-.878 5.231s-.878-.305-.878-5.23zm2.636 0c0-4.926.044-5.231.878-5.231s.878.305.878 5.23c0 4.926-.044 5.231-.878 5.231s-.878-.305-.878-5.23zM50.817 15V7.59h5.094c2.767 0 5.445.218 5.929.436.439.261 1.141 1.046 1.493 1.743 1.053 2.005.834 3.706-.66 5.405l-1.36 1.526 1.36 2.616c.703 1.438 1.318 2.746 1.318 2.876 0 .131-.439.218-.966.218-.79 0-1.361-.654-2.547-2.833-1.449-2.703-1.625-2.833-3.162-2.833h-1.668v2.833c0 2.528-.088 2.833-.878 2.833s-.879-.305-.879-3.661V15.13l3.338-.218c3.425-.218 4.215-.654 4.786-2.398.176-.74-.044-1.264-.834-2.092-1.01-1.002-1.45-1.09-4.874-1.09h-3.733v6.539c0 6.233-.044 6.538-.878 6.538-.835 0-.879-.305-.879-7.41zm21.298 6.756c-4.567-1.612-6.367-7.148-3.6-11.115C69.831 8.68 72.07 7.59 74.793 7.59c5.445 0 8.87 5.71 6.455 10.767-1.405 3.007-5.709 4.62-9.134 3.4zm6.148-2.833c2.415-2.266 2.503-5.71.175-7.89-3.513-3.269-9.221-.958-9.177 3.662.044 2.223.746 3.574 2.459 4.708 1.712 1.177 5.05.915 6.543-.48z" fill="#D61719"/><path d="M73.652 14.826c0-.916.22-1.134 1.142-1.134.922 0 1.098.175.966 1.003-.088.61-.483 1.002-1.098 1.09-.834.13-1.01-.044-1.01-.96zm14.492 4.533c0-2.746.087-3.051.878-3.051.79 0 .878.305.878 3.05 0 2.747-.088 3.052-.878 3.052s-.878-.305-.878-3.051zM34.57 8.462c0-.829.307-.872 6.586-.872 6.28 0 6.587.043 6.587.872 0 .828-.307.871-6.587.871-6.28 0-6.587-.043-6.587-.871z" fill="#D61719"/></svg>