<svg width="84" height="38" fill="none" xmlns="http://www.w3.org/2000/svg"><path d="M56.565 12.143v13.89a.373.373 0 01-.236.359.38.38 0 01-.15.026h-2.846a.38.38 0 01-.36-.236.374.374 0 01-.026-.148v-13.89a.373.373 0 01.239-.36.379.379 0 01.15-.025h2.843a.379.379 0 01.363.235.38.38 0 01.027.15h-.004zm22.213-.384c.11 0 .25.054.39.164.08.081.08.22.054.33l-4.7 13.92a.39.39 0 01-.356.245h-2.541c-.17 0-.305-.08-.36-.245l-2.737-8.117-2.736 8.113a.391.391 0 01-.357.25h-2.547c-.163 0-.302-.082-.357-.25l-4.7-13.916c-.026-.11-.026-.22.055-.33.059-.11.195-.164.305-.164h3.178c.165 0 .305.11.357.274l2.515 8.223 2.765-8.223a.392.392 0 01.357-.249h2.24c.162 0 .302.084.357.25l2.765 8.222 2.515-8.223a.377.377 0 01.357-.274h3.18zm4.806 0c.195 0 .36.164.39.384v13.89a.373.373 0 01-.39.385h-2.843a.377.377 0 01-.39-.384v-13.89a.373.373 0 01.24-.36.379.379 0 01.15-.025h2.843zM51.291 25.924a.283.283 0 01-.224.468h-3.482a.447.447 0 01-.357-.168l-.581-.71a7.814 7.814 0 01-4.17 1.234 7.727 7.727 0 01-5.308-2.325 7.66 7.66 0 01-2.18-5.35 7.66 7.66 0 012.18-5.348 7.727 7.727 0 015.308-2.325c1.384 0 2.744.37 3.935 1.073a7.693 7.693 0 012.834 2.923 7.65 7.65 0 01-.279 7.83l2.324 2.698zm-6.91-3.08l-1.518-1.841c-.166-.194-.03-.498.22-.498h3.204c.165-.44.25-.937.25-1.431 0-2.281-1.714-4.265-4.06-4.265-2.35 0-4.064 1.984-4.064 4.265 0 2.281 1.714 4.236 4.064 4.236.662.029 1.324-.162 1.905-.465zm-18.757.746c-.037-.311-.22-1.03-.696-1.214-.236-.093-.438-.02-.528.147-.148.258-.039.756.236 1.197.275.442.53.662.713.662.183 0 .348-.22.275-.792zm-2.56 1.253c-.292-.255-.62-.385-.914-.385a.702.702 0 00-.584.258c-.329.404-.183 1.14.328 1.584.22.203.548.312.859.312a.958.958 0 00.75-.331c.291-.405.128-.957-.439-1.438z" fill="#FF8C00"/><path d="M8.768 27.646a12.503 12.503 0 006.985 2.136l.002-.002c1.847 0 3.674-.348 6.36-.368 2.397 0 5.027.849 7.915 3.429.292.257.679-.074.421-.388-2.832-3.63-5.465-4.311-8.097-4.9-3.217-.718-4.862-2.526-6.015-4.534-.219-.405-.326-.331-.348.186-.02.759.034 1.518.163 2.266h-.382c-4.588 0-8.318-3.762-8.318-8.385 0-4.623 3.73-8.385 8.316-8.385a8.27 8.27 0 013.405.737 8.33 8.33 0 012.808 2.077 8.408 8.408 0 011.72 3.053 8.453 8.453 0 01.33 3.494c-.62-.11-1.81-.127-2.65-.054-.311.037-.273.184-.036.221 2.742.517 4.625 2.23 5.063 5.344.017.073.11.09.146.037a12.832 12.832 0 001.773-6.504c0-2.507-.738-4.957-2.12-7.041a12.596 12.596 0 00-5.643-4.667 12.482 12.482 0 00-7.265-.721 12.544 12.544 0 00-6.437 3.468 12.706 12.706 0 00-3.442 6.49 12.769 12.769 0 00.715 7.322 12.654 12.654 0 004.63 5.689z" fill="#FF8C00"/></svg>