<svg width="95" height="30" fill="none" xmlns="http://www.w3.org/2000/svg"><path d="M13.561 27.804c6.988 0 12.653-5.607 12.653-12.524 0-6.916-5.665-12.523-12.653-12.523S.908 8.364.908 15.28c0 6.917 5.665 12.524 12.653 12.524z" fill="#26A17B"/><path d="M14.91 16.436v-.002a25.47 25.47 0 01-1.544.032c-.803 0-1.367-.022-1.566-.032v.002c-3.09-.135-5.395-.666-5.395-1.304 0-.637 2.307-1.17 5.395-1.305v2.08c.201.014.781.048 1.58.048.96 0 1.44-.04 1.53-.048v-2.078c3.084.137 5.383.668 5.383 1.304 0 .637-2.3 1.168-5.383 1.305m0-2.825v-1.86h4.303V8.916H7.499v2.837h4.303v1.86c-3.497.16-6.125.844-6.125 1.665 0 .822 2.63 1.507 6.125 1.667v5.964h3.11v-5.963c3.491-.16 6.115-.844 6.115-1.666 0-.819-2.624-1.506-6.115-1.665" fill="#fff"/><path d="M36.963 9.691V12.7h2.953v2.258h-2.974v4.576c0 1.01.564 1.504 1.39 1.504.413 0 .89-.129 1.281-.322l.739 2.235c-.76.3-1.39.429-2.193.45-2.323.087-3.843-1.223-3.843-3.867v-4.577h-1.998V12.7h1.998V9.97l2.647-.28zm50.923 2.868l.196 1.224c.825-1.311 1.932-1.504 3.018-1.504 1.107 0 2.17.428 2.757 1.008l-1.194 2.278c-.543-.451-1.042-.689-1.91-.689-1.39 0-2.671.73-2.671 2.686v5.587h-2.65V12.554l2.454.005zm-6.491 4.06c-.173-1.374-1.26-2.063-2.779-2.063-1.432 0-2.606.689-2.996 2.064h5.775zm-5.818 2.171c.173 1.31 1.324 2.257 3.192 2.257.976 0 2.258-.366 2.866-.988l1.692 1.655c-1.129 1.16-2.974 1.719-4.603 1.719-3.69 0-5.885-2.257-5.885-5.652 0-3.223 2.215-5.545 5.69-5.545 3.582 0 5.82 2.193 5.407 6.554h-8.36zM63.897 8.11v5.887c.955-1.224 2.127-1.59 3.343-1.59 3.04 0 4.386 2.041 4.386 5.158v5.587h-2.648v-5.565c0-1.935-1.021-2.75-2.433-2.75-1.564 0-2.649 1.31-2.649 2.901v5.416h-2.648V8.111l2.648-.002zm-7.036 1.46v3.008h2.953v2.257H56.84v4.576c0 1.011.566 1.504 1.39 1.504.413 0 .89-.129 1.281-.322l.739 2.235c-.759.3-1.39.429-2.193.451-2.323.087-3.843-1.226-3.843-3.868v-4.576h-1.998v-2.257h1.998V9.85l2.647-.28zm-7.318 7.049c-.172-1.376-1.259-2.064-2.778-2.064-1.432 0-2.606.689-2.997 2.064h5.776zm-5.817 2.17c.172 1.31 1.324 2.257 3.191 2.257.977 0 2.258-.366 2.867-.988l1.692 1.655c-1.129 1.16-2.974 1.719-4.603 1.719-3.693 0-5.886-2.257-5.886-5.652 0-3.223 2.216-5.545 5.688-5.545 3.582 0 5.818 2.193 5.407 6.554h-8.356z" fill="#5B5A5D"/></svg>