<svg width="24" height="24" viewBox="0 0 24 24" fill="none" xmlns="http://www.w3.org/2000/svg">
<path d="M0 12C0 5.37258 5.37258 0 12 0C18.6274 0 24 5.37258 24 12C24 18.6274 18.6274 24 12 24C5.37258 24 0 18.6274 0 12Z" fill="#4C6C91"/>
<path d="M12.6278 15.9378C12.6278 15.9378 12.8588 15.9126 12.9772 15.7879C13.0855 15.6736 13.0817 15.4579 13.0817 15.4579C13.0817 15.4579 13.0673 14.4507 13.5437 14.302C14.0133 14.1557 14.6162 15.276 15.256 15.7068C15.7393 16.0325 16.1062 15.9612 16.1062 15.9612L17.8159 15.9378C17.8159 15.9378 18.7099 15.8838 18.2861 15.1937C18.251 15.1371 18.0388 14.683 17.0152 13.7501C15.9428 12.7736 16.0867 12.9316 17.3777 11.2422C18.164 10.2135 18.4783 9.58548 18.38 9.31693C18.2867 9.06006 17.7082 9.12827 17.7082 9.12827L15.7837 9.13995C15.7837 9.13995 15.641 9.1209 15.5352 9.18296C15.4319 9.2438 15.3649 9.38576 15.3649 9.38576C15.3649 9.38576 15.0607 10.1816 14.6543 10.8588C13.7973 12.2869 13.4548 12.3625 13.3146 12.274C12.9884 12.0669 13.0698 11.4432 13.0698 11.0001C13.0698 9.61559 13.2839 9.03855 12.6535 8.88922C12.4444 8.83944 12.2904 8.80687 11.7551 8.80134C11.0683 8.79458 10.4874 8.8038 10.1581 8.96173C9.93895 9.06682 9.76992 9.30157 9.87322 9.31509C10.0003 9.33168 10.2883 9.39129 10.441 9.59531C10.6382 9.85894 10.6314 10.4501 10.6314 10.4501C10.6314 10.4501 10.7447 12.0798 10.3665 12.282C10.1074 12.4209 9.75176 12.1376 8.98736 10.8416C8.59608 10.1779 8.30058 9.44414 8.30058 9.44414C8.30058 9.44414 8.24361 9.3071 8.14157 9.23335C8.01823 9.14425 7.84607 9.11659 7.84607 9.11659L6.01738 9.12827C6.01738 9.12827 5.74255 9.13564 5.64175 9.25302C5.55223 9.35687 5.63487 9.57257 5.63487 9.57257C5.63487 9.57257 7.06664 12.8609 8.68811 14.5183C10.175 16.0374 11.8628 15.9378 11.8628 15.9378H12.6278Z" fill="white"/>
</svg>
