<svg width="99" height="30" viewBox="0 0 99 30" fill="none" xmlns="http://www.w3.org/2000/svg">
<path d="M6.46523 15.2178C3.25958 7.19732 0.756532 0.484499 0.888272 0.31014C1.06392 0.179371 6.28958 0.963986 12.4813 2.05373L23.8109 4.10245L26.7531 7.02296L29.6513 9.98706L21.4835 19.8819C16.9604 25.3307 13.0522 29.7768 12.7887 29.7768C12.5252 29.8204 9.7148 23.2383 6.46523 15.2178ZM13.3157 18.1383C13.7109 14.9563 13.9744 12.2973 13.8865 12.2101C13.7987 12.1666 12.0422 10.7281 9.97827 9.07168C4.13784 4.3204 4.53306 4.53835 5.23566 6.28194C5.58697 7.11014 7.34349 11.4691 9.14393 15.9589C10.9444 20.405 12.4374 24.023 12.4813 23.9794C12.5252 23.9358 12.9204 21.3204 13.3157 18.1383ZM20.21 17.8332C23.0205 14.4768 25.2161 11.6871 25.1722 11.5999C25.0405 11.4691 16.4774 12.9076 16.2139 13.0819C15.9944 13.2127 14.8526 21.8435 14.8087 23.2383C14.8087 23.805 14.8965 24.1973 14.9844 24.1101C15.0722 24.023 17.4435 21.1896 20.21 17.8332ZM22.8448 9.76912L25.8748 9.20245L24.5574 7.89476C23.0644 6.4127 22.9326 6.45629 19.6391 9.33322C18.4974 10.3358 18.3218 10.6409 18.9804 10.4666C19.4635 10.3794 21.22 10.0307 22.8448 9.76912ZM17.9265 7.93835C19.4196 6.67424 20.4735 5.62809 20.2539 5.54091C18.8048 5.19219 7.16784 3.23065 6.90436 3.31783C6.55306 3.4486 14.3257 10.1178 14.8965 10.1614C15.0283 10.205 16.3896 9.20245 17.9265 7.93835Z" fill="#D61719"/>
<path d="M92.7105 17.6151L87.4849 11.5125L87.3531 16.9612C87.2653 22.0612 87.1775 22.4099 86.387 22.4099C85.5527 22.4099 85.5088 22.0612 85.5088 14.3458C85.5088 9.89969 85.5966 6.28174 85.6844 6.28174C85.8162 6.28174 88.2314 8.94071 91.0857 12.2099L96.2675 18.1382L96.3992 12.8638C96.487 7.93815 96.5749 7.58943 97.3653 7.58943C98.1997 7.58943 98.2436 7.93815 98.2436 15.6535C98.2436 20.0997 98.1997 23.7176 98.1118 23.7176C98.024 23.7176 95.6088 20.9715 92.7105 17.6151Z" fill="#D61719"/>
<path d="M38.9609 17.1795C38.9609 12.2539 39.0049 11.9487 39.8392 11.9487C40.6735 11.9487 40.7175 12.2539 40.7175 17.1795C40.7175 22.1051 40.6735 22.4103 39.8392 22.4103C39.0049 22.4103 38.9609 22.1051 38.9609 17.1795Z" fill="#D61719"/>
<path d="M41.5957 17.1795C41.5957 12.2539 41.6396 11.9487 42.474 11.9487C43.3083 11.9487 43.3522 12.2539 43.3522 17.1795C43.3522 22.1051 43.3083 22.4103 42.474 22.4103C41.6396 22.4103 41.5957 22.1051 41.5957 17.1795Z" fill="#D61719"/>
<path d="M50.8174 15.0001V7.58984H55.9113C58.6778 7.58984 61.3565 7.80779 61.8396 8.02574C62.2787 8.28728 62.9813 9.0719 63.3326 9.76933C64.3865 11.7745 64.1669 13.4745 62.6739 15.1745L61.3126 16.7001L62.6739 19.3155C63.3765 20.7539 63.9913 22.0616 63.9913 22.1924C63.9913 22.3232 63.5522 22.4104 63.0252 22.4104C62.2348 22.4104 61.6639 21.7565 60.4783 19.577C59.0291 16.8745 58.8535 16.7437 57.3165 16.7437H55.6478V19.577C55.6478 22.1052 55.56 22.4104 54.7696 22.4104C53.9791 22.4104 53.8913 22.1052 53.8913 18.7488V15.1309L57.2287 14.9129C60.6539 14.695 61.4443 14.2591 62.0152 12.5155C62.1909 11.7745 61.9713 11.2514 61.1809 10.4232C60.1709 9.42061 59.7317 9.33343 56.3065 9.33343H52.5739V15.8719C52.5739 22.1052 52.53 22.4104 51.6956 22.4104C50.8613 22.4104 50.8174 22.1052 50.8174 15.0001Z" fill="#D61719"/>
<path d="M72.1151 21.7565C67.5481 20.1437 65.7477 14.6078 68.5142 10.6411C69.8316 8.67959 72.0711 7.58984 74.7937 7.58984C80.239 7.58984 83.6642 13.3001 81.249 18.3565C79.8437 21.3642 75.5403 22.977 72.1151 21.7565ZM78.2629 18.9232C80.6781 16.6565 80.7659 13.2129 78.4385 11.0334C74.9255 7.7642 69.2168 10.0745 69.2607 14.695C69.3046 16.918 70.0072 18.2693 71.7198 19.4027C73.4324 20.5796 76.7698 20.318 78.2629 18.9232Z" fill="#D61719"/>
<path d="M73.6523 14.8257C73.6523 13.9103 73.8719 13.6924 74.7941 13.6924C75.7163 13.6924 75.8919 13.8667 75.7602 14.6949C75.6723 15.3052 75.2771 15.6975 74.6623 15.7847C73.828 15.9155 73.6523 15.7411 73.6523 14.8257Z" fill="#D61719"/>
<path d="M88.1436 19.3589C88.1436 16.6127 88.2314 16.3076 89.0218 16.3076C89.8123 16.3076 89.9001 16.6127 89.9001 19.3589C89.9001 22.1051 89.8123 22.4102 89.0218 22.4102C88.2314 22.4102 88.1436 22.1051 88.1436 19.3589Z" fill="#D61719"/>
<path d="M34.5693 8.46164C34.5693 7.63343 34.8767 7.58984 41.1563 7.58984C47.4359 7.58984 47.7432 7.63343 47.7432 8.46164C47.7432 9.28984 47.4359 9.33343 41.1563 9.33343C34.8767 9.33343 34.5693 9.28984 34.5693 8.46164Z" fill="#D61719"/>
</svg>
